<svg width="120" height="150" viewBox="0 0 120 150" fill="none" xmlns="http://www.w3.org/2000/svg">
<path d="M40 30H50V40H40V30Z" fill="#FF9131"/>
<path d="M50 30H60V40H50V30Z" fill="#FF9131"/>
<path d="M60 30H70V40H60V30Z" fill="#FF9131"/>
<path d="M70 30H80V40H70V30Z" fill="#FF9131"/>
<path d="M20 40H30V50H20V40Z" fill="#FF9131"/>
<path d="M30 40H40V50H30V40Z" fill="#FF9131"/>
<path d="M40 40H50V50H40V40Z" fill="#FF9131"/>
<path d="M50 40H60V50H50V40Z" fill="#FF9131"/>
<path d="M60 40H70V50H60V40Z" fill="#FF9131"/>
<path d="M70 40H80V50H70V40Z" fill="#FF9131"/>
<path d="M80 40H90V50H80V40Z" fill="#FF9131"/>
<path d="M90 40H100V50H90V40Z" fill="#FF9131"/>
<path d="M10 50H20V60H10V50Z" fill="#FF9131"/>
<path d="M20 50H30V60H20V50Z" fill="#FF9131"/>
<path d="M30 50H40V60H30V50Z" fill="#FF9131"/>
<path d="M40 50H50V60H40V50Z" fill="#FF9131"/>
<path d="M50 50H60V60H50V50Z" fill="#FF9131"/>
<path d="M60 50H70V60H60V50Z" fill="#FF9131"/>
<path d="M70 50H80V60H70V50Z" fill="#FF9131"/>
<path d="M80 50H90V60H80V50Z" fill="#FF9131"/>
<path d="M90 50H100V60H90V50Z" fill="#FF9131"/>
<path d="M100 50H110V60H100V50Z" fill="#FF9131"/>
<path d="M10 60H20V70H10V60Z" fill="#FF9131"/>
<path d="M20 60H30V70H20V60Z" fill="#FF9131"/>
<path d="M30 60H40V70H30V60Z" fill="#FF9131"/>
<path d="M40 60H50V70H40V60Z" fill="#FF9131"/>
<path d="M50 60H60V70H50V60Z" fill="#FF9131"/>
<path d="M60 60H70V70H60V60Z" fill="#FF9131"/>
<path d="M70 60H80V70H70V60Z" fill="#FF9131"/>
<path d="M80 60H90V70H80V60Z" fill="#FF9131"/>
<path d="M90 60H100V70H90V60Z" fill="#FF9131"/>
<path d="M100 60H110V70H100V60Z" fill="#FF9131"/>
<path d="M0 70H10V80H0V70Z" fill="#FF9131"/>
<path d="M10 70H20V80H10V70Z" fill="#FF9131"/>
<path d="M20 70H30V80H20V70Z" fill="#FF9131"/>
<path d="M30 70H40V80H30V70Z" fill="#FF9131"/>
<path d="M40 70H50V80H40V70Z" fill="#FF9131"/>
<path d="M50 70H60V80H50V70Z" fill="#FF9131"/>
<path d="M60 70H70V80H60V70Z" fill="#FF9131"/>
<path d="M70 70H80V80H70V70Z" fill="#FF9131"/>
<path d="M80 70H90V80H80V70Z" fill="#FF9131"/>
<path d="M90 70H100V80H90V70Z" fill="#FF9131"/>
<path d="M100 70H110V80H100V70Z" fill="#FF9131"/>
<path d="M110 70H120V80H110V70Z" fill="#FF9131"/>
<path d="M0 80H10V90H0V80Z" fill="#FF9131"/>
<path d="M10 80H20V90H10V80Z" fill="#FF9131"/>
<path d="M20 80H30V90H20V80Z" fill="#FF9131"/>
<path d="M30 80H40V90H30V80Z" fill="#FF9131"/>
<path d="M40 80H50V90H40V80Z" fill="#FF9131"/>
<path d="M50 80H60V90H50V80Z" fill="#FF9131"/>
<path d="M60 80H70V90H60V80Z" fill="#FF9131"/>
<path d="M70 80H80V90H70V80Z" fill="#FF9131"/>
<path d="M80 80H90V90H80V80Z" fill="#FF9131"/>
<path d="M90 80H100V90H90V80Z" fill="#FF9131"/>
<path d="M100 80H110V90H100V80Z" fill="#FF9131"/>
<path d="M110 80H120V90H110V80Z" fill="#FF9131"/>
<path d="M0 90H10V100H0V90Z" fill="#FF9131"/>
<path d="M10 90H20V100H10V90Z" fill="#FF9131"/>
<path d="M20 90H30V100H20V90Z" fill="#FF9131"/>
<path d="M30 90H40V100H30V90Z" fill="#FF9131"/>
<path d="M40 90H50V100H40V90Z" fill="#FF9131"/>
<path d="M50 90H60V100H50V90Z" fill="#FF9131"/>
<path d="M60 90H70V100H60V90Z" fill="#FF9131"/>
<path d="M70 90H80V100H70V90Z" fill="#FF9131"/>
<path d="M80 90H90V100H80V90Z" fill="#FF9131"/>
<path d="M90 90H100V100H90V90Z" fill="#FF9131"/>
<path d="M100 90H110V100H100V90Z" fill="#FF9131"/>
<path d="M110 90H120V100H110V90Z" fill="#FF9131"/>
<path d="M0 100H10V110H0V100Z" fill="#FF9131"/>
<path d="M10 100H20V110H10V100Z" fill="#FF9131"/>
<path d="M20 100H30V110H20V100Z" fill="#FF9131"/>
<path d="M30 100H40V110H30V100Z" fill="#FF9131"/>
<path d="M40 100H50V110H40V100Z" fill="#FF9131"/>
<path d="M50 100H60V110H50V100Z" fill="#FF9131"/>
<path d="M60 100H70V110H60V100Z" fill="#FF9131"/>
<path d="M70 100H80V110H70V100Z" fill="#FF9131"/>
<path d="M80 100H90V110H80V100Z" fill="#FF9131"/>
<path d="M90 100H100V110H90V100Z" fill="#FF9131"/>
<path d="M100 100H110V110H100V100Z" fill="#FF9131"/>
<path d="M110 100H120V110H110V100Z" fill="#FF9131"/>
<path d="M10 110H20V120H10V110Z" fill="#FF9131"/>
<path d="M20 110H30V120H20V110Z" fill="#FF9131"/>
<path d="M30 110H40V120H30V110Z" fill="#FF9131"/>
<path d="M40 110H50V120H40V110Z" fill="#FF9131"/>
<path d="M50 110H60V120H50V110Z" fill="#FF9131"/>
<path d="M60 110H70V120H60V110Z" fill="#FFD889"/>
<path d="M70 110H80V120H70V110Z" fill="#FF9131"/>
<path d="M80 110H90V120H80V110Z" fill="#FF9131"/>
<path d="M90 110H100V120H90V110Z" fill="#FF9131"/>
<path d="M100 110H110V120H100V110Z" fill="#FF9131"/>
<path d="M10 120H20V130H10V120Z" fill="#FF9131"/>
<path d="M20 120H30V130H20V120Z" fill="#FF9131"/>
<path d="M30 120H40V130H30V120Z" fill="#FFD889"/>
<path d="M40 120H50V130H40V120Z" fill="#FFD889"/>
<path d="M50 120H60V130H50V120Z" fill="#FFD889"/>
<path d="M60 120H70V130H60V120Z" fill="#FF9131"/>
<path d="M70 120H80V130H70V120Z" fill="#FF9131"/>
<path d="M80 120H90V130H80V120Z" fill="#FF9131"/>
<path d="M90 120H100V130H90V120Z" fill="#FF9131"/>
<path d="M100 120H110V130H100V120Z" fill="#FF9131"/>
<path d="M20 130H30V140H20V130Z" fill="#FF9131"/>
<path d="M30 130H40V140H30V130Z" fill="#FF9131"/>
<path d="M40 130H50V140H40V130Z" fill="#FF9131"/>
<path d="M50 130H60V140H50V130Z" fill="#FF9131"/>
<path d="M60 130H70V140H60V130Z" fill="#FF9131"/>
<path d="M70 130H80V140H70V130Z" fill="#FF9131"/>
<path d="M80 130H90V140H80V130Z" fill="#FF9131"/>
<path d="M90 130H100V140H90V130Z" fill="#FF9131"/>
<path d="M40 140H50V150H40V140Z" fill="#FF9131"/>
<path d="M50 140H60V150H50V140Z" fill="#FF9131"/>
<path d="M60 140H70V150H60V140Z" fill="#FF9131"/>
<path d="M70 140H80V150H70V140Z" fill="#FF9131"/>
<path d="M40 30H50V40H40V30Z" fill="#1BC02B"/>
<path d="M40 30H50V40H40V30Z" fill="#1BC02B"/>
<path d="M40 40H50V50H40V40Z" fill="#1BC02B"/>
<path d="M40 20H50V30H40V20Z" fill="#1BC02B"/>
<path d="M30 10H40V20H30V10Z" fill="#1BC02B"/>
<path d="M20 0H30V10H20V0Z" fill="#1BC02B"/>
<path d="M50 10H60V20H50V10Z" fill="#1BC02B"/>
<path d="M50 20H60V30H50V20Z" fill="#1BC02B"/>
<path d="M60 0H70V10H60V0Z" fill="#1BC02B"/>
<path d="M30 60H40V70H30V60Z" fill="#A6A6A6"/>
<path d="M80 60H90V70H80V60Z" fill="#A6A6A6"/>
<path d="M30 70H40V80H30V70Z" fill="#5648ED"/>
<path d="M80 70H90V80H80V70Z" fill="#5648ED"/>
<path d="M30 80H40V90H30V80Z" fill="#5648ED"/>
<path d="M80 80H90V90H80V80Z" fill="#5648ED"/>
<path d="M100 70H110V80H100V70Z" fill="#383838"/>
<path d="M90 70H100V80H90V70Z" fill="#383838"/>
<path d="M30 100H40V90H30V100Z" fill="#5648ED"/>
<path d="M80 100H90V90H80V100Z" fill="#5648ED"/>
<path d="M20 60H30V70H20V60Z" fill="#383838"/>
<path d="M70 60H80V70H70V60Z" fill="#383838"/>
<path d="M20 70H30V80H20V70Z" fill="#383838"/>
<path d="M70 70H80V80H70V70Z" fill="#383838"/>
<path d="M20 80H30V90H20V80Z" fill="#383838"/>
<path d="M70 80H80V90H70V80Z" fill="#383838"/>
<path d="M20 90H30V100H20V90Z" fill="#5648ED"/>
<path d="M70 90H80V100H70V90Z" fill="#5648ED"/>
<path d="M100 70H110V80H100V70Z" fill="#8E8E8E"/>
<path d="M90 70H100V80H90V70Z" fill="#8E8E8E"/>
<path d="M30 90H40V100H30V90Z" fill="#5648ED"/>
<path d="M80 90H90V100H80V90Z" fill="#5648ED"/>
<path d="M30 70H40V80H30V70Z" fill="#5648ED"/>
<path d="M80 70H90V80H80V70Z" fill="#5648ED"/>
<path d="M30 80H40V90H30V80Z" fill="#5648ED"/>
<path d="M80 80H90V90H80V80Z" fill="#5648ED"/>
<path d="M30 60H40V70H30V60Z" fill="#8E8E8E"/>
<path d="M80 60H90V70H80V60Z" fill="#8E8E8E"/>
<path d="M20 90H30V100H20V90Z" fill="#5648ED"/>
<path d="M70 90H80V100H70V90Z" fill="#5648ED"/>
<path d="M20 70H30V80H20V70Z" fill="#8E8E8E"/>
<path d="M70 70H80V80H70V70Z" fill="#8E8E8E"/>
<path d="M20 80H30V90H20V80Z" fill="#8E8E8E"/>
<path d="M70 80H80V90H70V80Z" fill="#8E8E8E"/>
<path d="M20 60H30V70H20V60Z" fill="#8E8E8E"/>
<path d="M70 60H80V70H70V60Z" fill="#8E8E8E"/>
<path d="M10 90H20V100H10V90Z" fill="#5648ED"/>
<path d="M60 90H70V100H60V90Z" fill="#5648ED"/>
<path d="M10 70H20V80H10V70Z" fill="#8E8E8E"/>
<path d="M60 70H70V80H60V70Z" fill="#8E8E8E"/>
<path d="M10 80H20V90H10V80Z" fill="#8E8E8E"/>
<path d="M60 80H70V90H60V80Z" fill="#8E8E8E"/>
<path d="M10 60H20V70H10V60Z" fill="#8E8E8E"/>
<path d="M60 60H70V70H60V60Z" fill="#8E8E8E"/>
<path d="M0 90H10V100H0V90Z" fill="#5648ED"/>
<path d="M50 90H60V100H50V90Z" fill="#5648ED"/>
<path d="M0 70H10V80H0V70Z" fill="#8E8E8E"/>
<path d="M50 70H60V80H50V70Z" fill="#8E8E8E"/>
<path d="M0 80H10V90H0V80Z" fill="#8E8E8E"/>
<path d="M50 80H60V90H50V80Z" fill="#8E8E8E"/>
<path d="M0 60H10V70H0V60Z" fill="#8E8E8E"/>
<path d="M50 60H60V70H50V60Z" fill="#8E8E8E"/>
<path d="M100 70H110V80H100V70Z" fill="#5648ED"/>
<path d="M100 70H110V80H100V70Z" fill="#5648ED"/>
<path d="M110 70H120V80H110V70Z" fill="#5648ED"/>
<path d="M90 70H100V80H90V70Z" fill="#5648ED"/>
<path d="M20 70H30V80H20V70Z" fill="#5648ED"/>
<path d="M20 70H30V80H20V70Z" fill="white"/>
<path d="M70 70H80V80H70V70Z" fill="#5648ED"/>
<path d="M70 70H80V80H70V70Z" fill="white"/>
<path d="M10 70H20V80H10V70Z" fill="#5648ED"/>
<path d="M10 70H20V80H10V70Z" fill="black"/>
<path d="M60 70H70V80H60V70Z" fill="#5648ED"/>
<path d="M60 70H70V80H60V70Z" fill="black"/>
<path d="M30 80H40V90H30V80Z" fill="#5648ED"/>
<path d="M80 80H90V90H80V80Z" fill="#5648ED"/>
<path d="M30 70H40V80H30V70Z" fill="#5648ED"/>
<path d="M80 70H90V80H80V70Z" fill="#5648ED"/>
<path d="M20 80H30V90H20V80Z" fill="#5648ED"/>
<path d="M20 80H30V90H20V80Z" fill="white"/>
<path d="M70 80H80V90H70V80Z" fill="#5648ED"/>
<path d="M70 80H80V90H70V80Z" fill="white"/>
<path d="M10 80H20V90H10V80Z" fill="#5648ED"/>
<path d="M10 80H20V90H10V80Z" fill="black"/>
<path d="M60 80H70V90H60V80Z" fill="#5648ED"/>
<path d="M60 80H70V90H60V80Z" fill="black"/>
<path d="M30 90H40V100H30V90Z" fill="#5648ED"/>
<path d="M80 90H90V100H80V90Z" fill="#5648ED"/>
<path d="M20 90H30V100H20V90Z" fill="#5648ED"/>
<path d="M20 90H30V100H20V90Z" fill="#5648ED"/>
<path d="M70 90H80V100H70V90Z" fill="#5648ED"/>
<path d="M70 90H80V100H70V90Z" fill="#5648ED"/>
<path d="M10 90H20V100H10V90Z" fill="#5648ED"/>
<path d="M10 90H20V100H10V90Z" fill="#5648ED"/>
<path d="M60 90H70V100H60V90Z" fill="#5648ED"/>
<path d="M60 90H70V100H60V90Z" fill="#5648ED"/>
<path d="M40 70H50V80H40V70Z" fill="#5648ED"/>
<path d="M30 60H40V70H30V60Z" fill="#5648ED"/>
<path d="M80 60H90V70H80V60Z" fill="#5648ED"/>
<path d="M20 60H30V70H20V60Z" fill="#5648ED"/>
<path d="M70 60H80V70H70V60Z" fill="#5648ED"/>
<path d="M10 60H20V70H10V60Z" fill="#5648ED"/>
<path d="M60 60H70V70H60V60Z" fill="#5648ED"/>
<path d="M0 60H10V70H0V60Z" fill="#5648ED"/>
<path d="M50 60H60V70H50V60Z" fill="#5648ED"/>
<path d="M0 70H10V80H0V70Z" fill="#5648ED"/>
<path d="M50 70H60V80H50V70Z" fill="#5648ED"/>
<path d="M0 80H10V90H0V80Z" fill="#5648ED"/>
<path d="M50 80H60V90H50V80Z" fill="#5648ED"/>
<path d="M0 90H10V100H0V90Z" fill="#5648ED"/>
<path d="M50 90H60V100H50V90Z" fill="#5648ED"/>
<path d="M110 80H120V90H110V80Z" fill="#5648ED"/>
</svg>
